<?xml version="1.0" encoding="utf-8"?>
<!-- Generator: Adobe Illustrator 17.1.0, SVG Export Plug-In . SVG Version: 6.00 Build 0)  -->
<!DOCTYPE svg PUBLIC "-//W3C//DTD SVG 1.1//EN" "http://www.w3.org/Graphics/SVG/1.1/DTD/svg11.dtd" [
	<!ENTITY ns_extend "http://ns.adobe.com/Extensibility/1.0/">
	<!ENTITY ns_ai "http://ns.adobe.com/AdobeIllustrator/10.0/">
	<!ENTITY ns_graphs "http://ns.adobe.com/Graphs/1.0/">
	<!ENTITY ns_vars "http://ns.adobe.com/Variables/1.0/">
	<!ENTITY ns_imrep "http://ns.adobe.com/ImageReplacement/1.0/">
	<!ENTITY ns_sfw "http://ns.adobe.com/SaveForWeb/1.0/">
	<!ENTITY ns_custom "http://ns.adobe.com/GenericCustomNamespace/1.0/">
	<!ENTITY ns_adobe_xpath "http://ns.adobe.com/XPath/1.0/">
]>
<svg version="1.1"
	 id="svg2" xmlns:x="&ns_extend;" xmlns:i="&ns_ai;" xmlns:graph="&ns_graphs;" xmlns:svg="http://www.w3.org/2000/svg"
	 xmlns="http://www.w3.org/2000/svg" xmlns:xlink="http://www.w3.org/1999/xlink" x="0px" y="0px" viewBox="0 0 422 480"
	 enable-background="new 0 0 422 480" xml:space="preserve">
<metadata>
	<sfw  xmlns="&ns_sfw;">
		<slices></slices>
		<sliceSourceBounds  width="287.7" height="226.4" bottomLeftOrigin="true" x="103.2" y="89.4"></sliceSourceBounds>
	</sfw>
</metadata>
<path id="path1_2_" fill="none" stroke="#FFFFFF" stroke-width="5" stroke-miterlimit="10" d="M208,166.7l-3.2,2.3l-3.7,3.5
	l-3.8,4.8l-3.5,6.1l-2.8,7.7l-3.2,14.6l-0.5,10.7h-1.5l-2.2-0.3l-2.9-0.5l-3.7-0.8l-4.1-1.3l-3-0.4l-4.5-1.2l-7.8-2.9l-10.2-4.4
	l-9.7-4.9l-8.7-6.3l-8.8-6.4l-6.6,1.6l-5.3,2.9l-2.5,5.3l1.5,8.7l4.7,31.1l3.4,15.9l8.1,41.3l6.8,19.2l8.2,19.1l9,17.9l9.8,15.3
	l0.2,0.5l0.8,1.3l1.5,1.9l2,2.4l2.6,2.7l3.3,2.9l4,2.9l4.8,2.7l9.2,2.2l15.9,1.6l20.4,1.2l22.6,0.5l22.6-0.3l20.4-0.9l18.7-1
	l9.2-2.6l6.4-5.7l8.4-10.6l9.8-14.2l10.3-16.8l9.8-18.4l8.4-18.7l10.5-48.5l5.7-36.4l3.4-13.1l-4.9-7.3l-7.9-3.3l-15.9,14.5l-20,7.1
	l-12.6,2.6l-12.5,2.4l-11.7,1.5l0.1-15.5l-0.5-4.6l-1.2-6.4l-2.1-7.3l-3.3-7.3l-4.9-6.4l-6.6-4.6"/>
</svg>
