<?xml version="1.0" encoding="utf-8"?>
<!-- Generator: Adobe Illustrator 15.1.0, SVG Export Plug-In . SVG Version: 6.00 Build 0)  -->
<svg version="1.2" baseProfile="tiny" id="svg2" xmlns:svg="http://www.w3.org/2000/svg"
	 xmlns="http://www.w3.org/2000/svg" xmlns:xlink="http://www.w3.org/1999/xlink" x="0px" y="0px" width="422px" height="480px"
	 viewBox="0 0 422 480" overflow="inherit" xml:space="preserve">
<path fill-rule="evenodd" clip-rule="evenodd" fill="none" stroke="#FFFFFF" stroke-miterlimit="10" d="M290.6,139
	c7.1,4.2,14.1,9.4,20.9,15.4c6.8,6,13.4,12.8,19.6,20.3c6.2,7.5,12,15.8,17.2,24.6c5.2,8.9,9.8,18.3,13.7,28.3
	c3.8,10,6.9,20.4,9,31.3c2.1,10.8,3.3,22.1,3.3,33.6c0,11.5-0.9,22.5-2.5,33c-1.7,10.5-4.1,20.4-7.3,29.7c-3.2,9.3-7,18-11.5,26
	c-4.5,8-9.6,15.4-15.2,22.1s-11.8,12.6-18.5,17.8c-6.6,5.2-13.7,9.6-21.2,13.1c-7.5,3.6-15.3,6.3-23.4,8.1
	c-8.1,1.8-16.5,2.8-25.2,2.8c-8.6,0-17-0.9-25.2-2.8s-16-4.6-23.4-8.1c-7.5-3.6-14.6-7.9-21.2-13.1c-6.6-5.2-12.8-11.1-18.5-17.8
	s-10.8-14-15.2-22.1c-4.5-8-8.4-16.7-11.5-26c-3.2-9.3-5.6-19.2-7.3-29.7s-2.5-21.5-2.5-33c0-11.5,1.1-22.7,3.2-33.6
	c2.1-10.8,5.1-21.3,8.8-31.3c3.8-10,8.3-19.4,13.4-28.3s10.9-17.1,17-24.6c6.1-7.5,12.7-14.3,19.5-20.3s13.8-11.1,20.9-15.4"/>
</svg>
