<?xml version="1.0" encoding="utf-8"?>
<!-- Generator: Adobe Illustrator 15.1.0, SVG Export Plug-In . SVG Version: 6.00 Build 0)  -->
<svg version="1.2" baseProfile="tiny" id="svg2" xmlns:svg="http://www.w3.org/2000/svg"
	 xmlns="http://www.w3.org/2000/svg" xmlns:xlink="http://www.w3.org/1999/xlink" x="0px" y="0px" width="422px" height="480px"
	 viewBox="0 0 422 480" overflow="inherit" xml:space="preserve">
<path id="path1_2_" fill="none" stroke="#FFFFFF" stroke-width="5" stroke-miterlimit="10" d="M208,166.7l-3.2,2.3l-3.7,3.5l-3.8,4.8l-3.5,6.1l-2.8,7.7l-3.2,14.6l-0.5,10.7h-1.5l-2.2-0.3
	l-2.9-0.5l-3.7-0.8l-4.1-1.3l-3-0.4l-4.5-1.2l-7.8-2.9l-10.2-4.4l-9.7-4.9l-8.7-6.3l-8.8-6.4l-6.6,1.6l-5.3,2.9l-2.5,5.3l1.5,8.7
	l4.7,31.1l3.4,15.9l8.1,41.3l6.8,19.2l8.2,19.1l9,17.9l9.8,15.3l0.2,0.5l0.8,1.3l1.5,1.9l2,2.4l2.6,2.7l3.3,2.9l4,2.9l4.8,2.7
	l9.2,2.2l15.9,1.6l20.4,1.2l22.6,0.5l22.6-0.3l20.4-0.9l18.7-1l9.2-2.6l6.4-5.7l8.4-10.6l9.8-14.2l10.3-16.8l9.8-18.4l8.4-18.7
	l10.5-48.5l5.7-36.4l3.4-13.1l-4.9-7.3l-7.9-3.3l-15.9,14.5l-20,7.1l-12.6,2.6l-12.5,2.4l-11.7,1.5l0.1-15.5l-0.5-4.6l-1.2-6.4
	l-2.1-7.3l-3.3-7.3l-4.9-6.4l-6.6-4.6"/>
</svg>
