<?xml version="1.0" encoding="utf-8"?>
<!-- Generator: Adobe Illustrator 15.1.0, SVG Export Plug-In . SVG Version: 6.00 Build 0)  -->
<svg version="1.2" baseProfile="tiny" id="svg2" xmlns:svg="http://www.w3.org/2000/svg"
	 xmlns="http://www.w3.org/2000/svg" xmlns:xlink="http://www.w3.org/1999/xlink" x="0px" y="0px" width="422px" height="480px"
	 viewBox="0 0 422 480" overflow="inherit" xml:space="preserve">
	 <path id="path1" fill="none" stroke="#000000" d="M211,247l-0.7,0.3l-1.8,0.9l-2.7,1.6l-3.1,2.4l-3.2,3.3l-3,4.2l-2.4,5.2l-1.5,6.3
	l-0.4,0l-1.2,0l-1.9-0.2l-2.5-0.4l-3.1-0.6l-3.5-1l-3.8-1.5l-4-2l-4.8-2.1l-5.8-1.7l-6.4-1.2l-6.6-0.5l-6.3,0.3l-5.6,1.2l-4.5,2.2
	l-2.9,3.3l-0.9,6l1.1,9.6l2.9,12.2l4.4,14l5.8,14.8l6.9,14.7l7.7,13.7l8.3,11.8l0.2,0.4l0.7,1l1.2,1.5l1.7,1.9l2.2,2.1l2.8,2.2
	l3.4,2.2l4,2.1l7.8,1.7l13.5,1.3l17.3,0.9l19.2,0.4l19.2-0.2l17.3-0.7l13.5-1.4l7.8-2l5.4-4.4l7.2-8.1l8.3-10.9l8.7-12.9l8.3-14.1
	l7.2-14.4l5.3-13.9l2.8-12.5l-0.7-9.4l-4.1-5.6l-6.7-2.5l-8.7-0.2l-10,1.3l-10.7,2l-10.6,1.9l-9.9,1.1l-0.1-1.2l-0.4-3.1l-1-4.4
	l-1.8-5l-2.8-5l-4.1-4.4l-5.6-3.1L266,247"/>

</svg>
