<?xml version="1.0" encoding="utf-8"?>
<!-- Generator: Adobe Illustrator 17.1.0, SVG Export Plug-In . SVG Version: 6.00 Build 0)  -->
<!DOCTYPE svg PUBLIC "-//W3C//DTD SVG 1.1//EN" "http://www.w3.org/Graphics/SVG/1.1/DTD/svg11.dtd" [
	<!ENTITY ns_extend "http://ns.adobe.com/Extensibility/1.0/">
	<!ENTITY ns_ai "http://ns.adobe.com/AdobeIllustrator/10.0/">
	<!ENTITY ns_graphs "http://ns.adobe.com/Graphs/1.0/">
	<!ENTITY ns_vars "http://ns.adobe.com/Variables/1.0/">
	<!ENTITY ns_imrep "http://ns.adobe.com/ImageReplacement/1.0/">
	<!ENTITY ns_sfw "http://ns.adobe.com/SaveForWeb/1.0/">
	<!ENTITY ns_custom "http://ns.adobe.com/GenericCustomNamespace/1.0/">
	<!ENTITY ns_adobe_xpath "http://ns.adobe.com/XPath/1.0/">
]>
<svg version="1.1"
	 id="svg2" xmlns:x="&ns_extend;" xmlns:i="&ns_ai;" xmlns:graph="&ns_graphs;" xmlns:svg="http://www.w3.org/2000/svg"
	 xmlns="http://www.w3.org/2000/svg" xmlns:xlink="http://www.w3.org/1999/xlink" x="0px" y="0px" viewBox="0 0 422 480"
	 enable-background="new 0 0 422 480" xml:space="preserve">
<metadata>
	<sfw  xmlns="&ns_sfw;">
		<slices></slices>
		<sliceSourceBounds  width="269.6" height="202.8" x="109.6" y="87.6" bottomLeftOrigin="true"></sliceSourceBounds>
	</sfw>
</metadata>
<path id="path1" fill="#FFFFFF" d="M209.8,190.2l-0.8,0.4l-2.2,1.3l-3.3,2.4l-3.8,3.6l-3.9,4.9l-3.6,6.3l-2.9,7.9l-1.8,27.6H187
	h-1.5l-2.3-0.3l-3-0.5l-3.8-0.8l-4.2-1.3l-4.6-2l-4.9-2.7l-5.8-2.8l-7-2.3l-7.8-1.6l-8-0.7l-7.6,0.4l-6.8,1.6l-5.5,3l-3.5,4.4
	l-1.1,8l1.3,12.9l3.5,16.4l5.3,18.8l7,19.8l8.4,19.7l9.3,18.4l10.1,15.8l0.2,0.5l0.8,1.3l1.5,2l2.1,2.5l2.7,2.8l3.4,3l4.1,3l4.9,2.8
	l9.5,2.3l16.4,1.7l21,1.2l23.3,0.5l23.3-0.3l21-0.9l16.4-1.9l9.5-2.7l6.6-5.9l8.7-10.9l10.1-14.6l10.6-17.3l10.1-18.9l8.7-19.3
	l6.4-18.6l3.4-16.8l-0.8-12.6l-5-7.5l-8.1-3.4l-10.6-0.3l-12.1,1.7l-13,2.7l-12.9,2.5l-12,1.5l-0.1-19.4l-0.5-4.7l-1.2-6.6l-2.2-7.5
	l-3.4-7.5l-5-6.6l-6.8-4.7l-8.9-2.1"/>
</svg>
