<?xml version="1.0" encoding="utf-8"?>
<!-- Generator: Adobe Illustrator 17.1.0, SVG Export Plug-In . SVG Version: 6.00 Build 0)  -->
<!DOCTYPE svg PUBLIC "-//W3C//DTD SVG 1.1//EN" "http://www.w3.org/Graphics/SVG/1.1/DTD/svg11.dtd" [
	<!ENTITY ns_extend "http://ns.adobe.com/Extensibility/1.0/">
	<!ENTITY ns_ai "http://ns.adobe.com/AdobeIllustrator/10.0/">
	<!ENTITY ns_graphs "http://ns.adobe.com/Graphs/1.0/">
	<!ENTITY ns_vars "http://ns.adobe.com/Variables/1.0/">
	<!ENTITY ns_imrep "http://ns.adobe.com/ImageReplacement/1.0/">
	<!ENTITY ns_sfw "http://ns.adobe.com/SaveForWeb/1.0/">
	<!ENTITY ns_custom "http://ns.adobe.com/GenericCustomNamespace/1.0/">
	<!ENTITY ns_adobe_xpath "http://ns.adobe.com/XPath/1.0/">
]>
<svg version="1.1" id="circle" xmlns:x="&ns_extend;" xmlns:i="&ns_ai;" xmlns:graph="&ns_graphs;"
	 xmlns="http://www.w3.org/2000/svg" xmlns:xlink="http://www.w3.org/1999/xlink" x="0px" y="0px" viewBox="0 0 422 480"
	 enable-background="new 0 0 422 480" xml:space="preserve">
<metadata>
	<sfw  xmlns="&ns_sfw;">
		<slices></slices>
		<sliceSourceBounds  width="237" height="234.6" x="126.9" y="69.7" bottomLeftOrigin="true"></sliceSourceBounds>
	</sfw>
</metadata>
<polyline fill="#FFFFFF" points="269.3,175.7 291.5,182.6 311.7,193.5 329.2,208 343.7,225.5 354.6,245.6 361.5,267.9 363.9,291.8 
	363.9,291.8 361.5,315.6 354.6,337.9 343.7,358 329.2,375.6 311.7,390 291.5,400.9 269.3,407.9 245.4,410.3 221.5,407.9 
	199.3,400.9 179.2,390 161.6,375.6 147.1,358 136.2,337.9 129.3,315.6 126.9,291.8 129.3,267.9 136.2,245.6 147.1,225.5 161.6,208 
	179.2,193.5 199.3,182.6 221.5,175.7 "/>
</svg>
